<?xml version="1.0" encoding="UTF-8" standalone="no"?>
<!DOCTYPE svg PUBLIC "-//W3C//DTD SVG 1.1//EN"
 "http://www.w3.org/Graphics/SVG/1.1/DTD/svg11.dtd">
<!-- Generated by graphviz version 2.40.1 (20161225.0304)
 -->
<!-- Title: %3 Pages: 1 -->
<svg width="152pt" height="342pt"
 viewBox="0.00 0.00 152.00 342.00" xmlns="http://www.w3.org/2000/svg" xmlns:xlink="http://www.w3.org/1999/xlink">
<g id="graph0" class="graph" transform="scale(1 1) rotate(0) translate(4 338)">
<title>%3</title>
<polygon fill="#ffffff" stroke="transparent" points="-4,4 -4,-338 148,-338 148,4 -4,4"/>
<text text-anchor="start" x="70.0552" y="-318.8" font-family="Helvetica,sans-Serif" font-size="14.00" fill="#000000"> </text>
<!-- in -->
<g id="node1" class="node">
<title>in</title>
<ellipse fill="#000000" stroke="#000000" cx="72" cy="-303" rx="9" ry="9"/>
</g>
<!-- foo -->
<g id="node3" class="node">
<title>foo</title>
<polygon fill="none" stroke="#000000" points="99,-239 85.5,-257 58.5,-257 45,-239 58.5,-221 85.5,-221 99,-239"/>
<text text-anchor="middle" x="72" y="-235.4" font-family="Helvetica,sans-Serif" font-size="12.00" fill="#000000">foo</text>
</g>
<!-- in&#45;&gt;foo -->
<g id="edge1" class="edge">
<title>in&#45;&gt;foo</title>
<path fill="none" stroke="#000000" d="M72,-293.8031C72,-286.1605 72,-280.5889 72,-267.2148"/>
<polygon fill="#000000" stroke="#000000" points="75.5001,-267.1993 72,-257.1993 68.5001,-267.1993 75.5001,-267.1993"/>
</g>
<!-- fn -->
<g id="node2" class="node">
<title>fn</title>
<ellipse fill="#000000" stroke="#000000" cx="71" cy="-13" rx="9" ry="9"/>
<ellipse fill="none" stroke="#000000" cx="71" cy="-13" rx="13" ry="13"/>
</g>
<!-- bar -->
<g id="node5" class="node">
<title>bar</title>
<path fill="none" stroke="#000000" d="M12,-136.5C12,-136.5 42,-136.5 42,-136.5 48,-136.5 54,-142.5 54,-148.5 54,-148.5 54,-160.5 54,-160.5 54,-166.5 48,-172.5 42,-172.5 42,-172.5 12,-172.5 12,-172.5 6,-172.5 0,-166.5 0,-160.5 0,-160.5 0,-148.5 0,-148.5 0,-142.5 6,-136.5 12,-136.5"/>
<text text-anchor="middle" x="26.6719" y="-150.9" font-family="Helvetica,sans-Serif" font-size="12.00" fill="#000000">bar</text>
</g>
<!-- foo&#45;&gt;bar -->
<g id="edge2" class="edge">
<title>foo&#45;&gt;bar</title>
<path fill="none" stroke="#000000" d="M55.2483,-225.0478C43.4929,-214.2525 39.2955,-205.8731 33.5396,-182.7906"/>
<polygon fill="#000000" stroke="#000000" points="36.8755,-181.6917 31.1438,-172.7812 30.0679,-183.3212 36.8755,-181.6917"/>
<text text-anchor="middle" x="51.3389" y="-193.4" font-family="Helvetica,sans-Serif" font-size="12.00" fill="#000000">true</text>
</g>
<!-- baz -->
<g id="node6" class="node">
<title>baz</title>
<path fill="none" stroke="#000000" d="M102,-136.5C102,-136.5 132,-136.5 132,-136.5 138,-136.5 144,-142.5 144,-148.5 144,-148.5 144,-160.5 144,-160.5 144,-166.5 138,-172.5 132,-172.5 132,-172.5 102,-172.5 102,-172.5 96,-172.5 90,-166.5 90,-160.5 90,-160.5 90,-148.5 90,-148.5 90,-142.5 96,-136.5 102,-136.5"/>
<text text-anchor="middle" x="116.6738" y="-150.9" font-family="Helvetica,sans-Serif" font-size="12.00" fill="#000000">baz</text>
</g>
<!-- foo&#45;&gt;baz -->
<g id="edge3" class="edge">
<title>foo&#45;&gt;baz</title>
<path fill="none" stroke="#000000" d="M88.7517,-225.0478C100.5071,-214.2525 104.7045,-205.8731 110.4604,-182.7906"/>
<polygon fill="#000000" stroke="#000000" points="113.9321,-183.3212 112.8562,-172.7812 107.1245,-181.6917 113.9321,-183.3212"/>
<text text-anchor="start" x="110" y="-193.4" font-family="Helvetica,sans-Serif" font-size="12.00" fill="#000000">false</text>
</g>
<!-- m -->
<g id="node4" class="node">
<title>m</title>
<polygon fill="none" stroke="#000000" points="98,-81 84.5,-99 57.5,-99 44,-81 57.5,-63 84.5,-63 98,-81"/>
</g>
<!-- m&#45;&gt;fn -->
<g id="edge6" class="edge">
<title>m&#45;&gt;fn</title>
<path fill="none" stroke="#000000" d="M70.9527,-62.7274C70.9214,-50.2527 70.906,-42.5517 70.9064,-36.5365"/>
<polygon fill="#000000" stroke="#000000" points="74.4069,-36.2409 70.9269,-26.234 67.4069,-36.227 74.4069,-36.2409"/>
</g>
<!-- bar&#45;&gt;m -->
<g id="edge4" class="edge">
<title>bar&#45;&gt;m</title>
<path fill="none" stroke="#000000" d="M31.7761,-136.1009C36.6122,-118.0713 39.8987,-109.004 46.0699,-101.4916"/>
<polygon fill="#000000" stroke="#000000" points="48.752,-103.76 53.3669,-94.223 43.8119,-98.8006 48.752,-103.76"/>
</g>
<!-- baz&#45;&gt;m -->
<g id="edge5" class="edge">
<title>baz&#45;&gt;m</title>
<path fill="none" stroke="#000000" d="M111.9327,-136.4359C106.4563,-117.4662 102.8984,-108.2748 96.0953,-100.6111"/>
<polygon fill="#000000" stroke="#000000" points="98.4783,-98.0475 88.7872,-93.7657 93.6929,-103.1564 98.4783,-98.0475"/>
</g>
</g>
</svg>
