<?xml version="1.0" encoding="UTF-8" standalone="no"?>
<!DOCTYPE svg PUBLIC "-//W3C//DTD SVG 1.1//EN"
 "http://www.w3.org/Graphics/SVG/1.1/DTD/svg11.dtd">
<!-- Generated by graphviz version 2.40.1 (20161225.0304)
 -->
<!-- Title: %3 Pages: 1 -->
<svg width="152pt" height="257pt"
 viewBox="0.00 0.00 152.00 257.00" xmlns="http://www.w3.org/2000/svg" xmlns:xlink="http://www.w3.org/1999/xlink">
<g id="graph0" class="graph" transform="scale(1 1) rotate(0) translate(4 253)">
<title>%3</title>
<polygon fill="#ffffff" stroke="transparent" points="-4,4 -4,-253 148,-253 148,4 -4,4"/>
<text text-anchor="start" x="70.0552" y="-233.8" font-family="Helvetica,sans-Serif" font-size="14.00" fill="#000000"> </text>
<!-- in -->
<g id="node1" class="node">
<title>in</title>
<ellipse fill="#000000" stroke="#000000" cx="72" cy="-218" rx="9" ry="9"/>
</g>
<!-- f -->
<g id="node3" class="node">
<title>f</title>
<polygon fill="none" stroke="transparent" stroke-width="2" points="126,-173 18,-173 18,-172 126,-172 126,-173"/>
<polyline fill="none" stroke="#000000" stroke-width="2" points="18,-172 126,-172 "/>
</g>
<!-- in&#45;&gt;f -->
<g id="edge1" class="edge">
<title>in&#45;&gt;f</title>
<path fill="none" stroke="#000000" d="M72,-208.7098C72,-203.0575 72,-197.7027 72,-183.2739"/>
<polygon fill="#000000" stroke="#000000" points="75.5001,-183.0335 72,-173.0335 68.5001,-183.0336 75.5001,-183.0335"/>
</g>
<!-- fn -->
<g id="node2" class="node">
<title>fn</title>
<ellipse fill="#000000" stroke="#000000" cx="72" cy="-13" rx="9" ry="9"/>
<ellipse fill="none" stroke="#000000" cx="72" cy="-13" rx="13" ry="13"/>
</g>
<!-- foo -->
<g id="node5" class="node">
<title>foo</title>
<path fill="none" stroke="#000000" d="M12,-99.5C12,-99.5 42,-99.5 42,-99.5 48,-99.5 54,-105.5 54,-111.5 54,-111.5 54,-123.5 54,-123.5 54,-129.5 48,-135.5 42,-135.5 42,-135.5 12,-135.5 12,-135.5 6,-135.5 0,-129.5 0,-123.5 0,-123.5 0,-111.5 0,-111.5 0,-105.5 6,-99.5 12,-99.5"/>
<text text-anchor="middle" x="26.8408" y="-113.9" font-family="Helvetica,sans-Serif" font-size="12.00" fill="#000000">foo</text>
</g>
<!-- f&#45;&gt;foo -->
<g id="edge2" class="edge">
<title>f&#45;&gt;foo</title>
<path fill="none" stroke="#000000" d="M70.9312,-171.9463C50.9515,-161.5936 44.3405,-158.0019 37.8666,-144.9992"/>
<polygon fill="#000000" stroke="#000000" points="40.9459,-143.305 33.7351,-135.5425 34.5314,-146.1074 40.9459,-143.305"/>
</g>
<!-- bar -->
<g id="node6" class="node">
<title>bar</title>
<path fill="none" stroke="#000000" d="M102,-99.5C102,-99.5 132,-99.5 132,-99.5 138,-99.5 144,-105.5 144,-111.5 144,-111.5 144,-123.5 144,-123.5 144,-129.5 138,-135.5 132,-135.5 132,-135.5 102,-135.5 102,-135.5 96,-135.5 90,-129.5 90,-123.5 90,-123.5 90,-111.5 90,-111.5 90,-105.5 96,-99.5 102,-99.5"/>
<text text-anchor="middle" x="116.6719" y="-113.9" font-family="Helvetica,sans-Serif" font-size="12.00" fill="#000000">bar</text>
</g>
<!-- f&#45;&gt;bar -->
<g id="edge3" class="edge">
<title>f&#45;&gt;bar</title>
<path fill="none" stroke="#000000" d="M73.0688,-171.9463C93.0485,-161.5936 99.6595,-158.0019 106.1334,-144.9992"/>
<polygon fill="#000000" stroke="#000000" points="109.4686,-146.1074 110.2649,-135.5425 103.0541,-143.305 109.4686,-146.1074"/>
</g>
<!-- j -->
<g id="node4" class="node">
<title>j</title>
<polygon fill="none" stroke="transparent" stroke-width="2" points="126,-63 18,-63 18,-62 126,-62 126,-63"/>
<polyline fill="none" stroke="#000000" stroke-width="2" points="18,-62 126,-62 "/>
</g>
<!-- j&#45;&gt;fn -->
<g id="edge6" class="edge">
<title>j&#45;&gt;fn</title>
<path fill="none" stroke="#000000" d="M72,-61.6942C72,-49.9443 72,-42.2597 72,-36.6173"/>
<polygon fill="#000000" stroke="#000000" points="75.5001,-36.2064 72,-26.2064 68.5001,-36.2065 75.5001,-36.2064"/>
</g>
<!-- foo&#45;&gt;j -->
<g id="edge4" class="edge">
<title>foo&#45;&gt;j</title>
<path fill="none" stroke="#000000" d="M33.3096,-99.2837C39.7926,-82.0342 44.444,-77.5358 61.849,-67.962"/>
<polygon fill="#000000" stroke="#000000" points="63.6521,-70.9662 70.7958,-63.142 60.3321,-64.8036 63.6521,-70.9662"/>
</g>
<!-- bar&#45;&gt;j -->
<g id="edge5" class="edge">
<title>bar&#45;&gt;j</title>
<path fill="none" stroke="#000000" d="M110.6904,-99.2837C104.2074,-82.0342 99.556,-77.5358 82.151,-67.962"/>
<polygon fill="#000000" stroke="#000000" points="83.6679,-64.8036 73.2042,-63.142 80.3479,-70.9662 83.6679,-64.8036"/>
</g>
</g>
</svg>
