<?xml version="1.0" encoding="UTF-8" standalone="no"?>
<!DOCTYPE svg PUBLIC "-//W3C//DTD SVG 1.1//EN"
 "http://www.w3.org/Graphics/SVG/1.1/DTD/svg11.dtd">
<!-- Generated by graphviz version 2.40.1 (20161225.0304)
 -->
<!-- Pages: 1 -->
<svg width="152pt" height="136pt"
 viewBox="0.00 0.00 152.00 136.00" xmlns="http://www.w3.org/2000/svg" xmlns:xlink="http://www.w3.org/1999/xlink">
<g id="graph0" class="graph" transform="scale(1 1) rotate(0) translate(4 132)">
<polygon fill="#ffffff" stroke="transparent" points="-4,4 -4,-132 148,-132 148,4 -4,4"/>
<!-- foo -->
<g id="node1" class="node">
<title>foo</title>
<polygon fill="none" stroke="#000000" points="99.5,-128 96.5,-132 75.5,-132 72.5,-128 44.5,-128 44.5,-72 99.5,-72 99.5,-128"/>
<polyline fill="none" stroke="#000000" points="45,-106 100,-106 "/>
<text text-anchor="start" x="64.1592" y="-113.4" font-family="Helvetica,sans" font-size="12.00" fill="#000000">foo</text>
<polyline fill="none" stroke="#000000" points="45,-72 100,-72 "/>
<text text-anchor="start" x="50" y="-91.4" font-family="Helvetica,sans" font-size="12.00" fill="#000000">bar()</text>
<text text-anchor="start" x="50" y="-79.4" font-family="Helvetica,sans" font-size="12.00" fill="#000000">baz()</text>
</g>
<!-- Qux -->
<g id="node2" class="node">
<title>Qux</title>
<polygon fill="none" stroke="#000000" points="54,-36 0,-36 0,0 54,0 54,-36"/>
<text text-anchor="middle" x="27" y="-14.4" font-family="Helvetica,sans" font-size="12.00" fill="#000000">Qux</text>
</g>
<!-- Qux&#45;&gt;foo -->
<g id="edge1" class="edge">
<title>Qux&#45;&gt;foo</title>
<path fill="none" stroke="#000000" d="M36.987,-36.1985C41.6126,-44.6273 47.2727,-54.9414 52.6824,-64.799"/>
<ellipse fill="none" stroke="#000000" cx="54.6344" cy="-68.356" rx="4" ry="4"/>
</g>
<!-- Quux -->
<g id="node3" class="node">
<title>Quux</title>
<polygon fill="none" stroke="#000000" points="144,-36 90,-36 90,0 144,0 144,-36"/>
<text text-anchor="middle" x="117" y="-14.4" font-family="Helvetica,sans" font-size="12.00" fill="#000000">Quux</text>
</g>
<!-- Quux&#45;&gt;foo -->
<g id="edge2" class="edge">
<title>Quux&#45;&gt;foo</title>
<path fill="none" stroke="#000000" d="M107.013,-36.1985C102.3874,-44.6273 96.7273,-54.9414 91.3176,-64.799"/>
<ellipse fill="none" stroke="#000000" cx="89.3656" cy="-68.356" rx="4" ry="4"/>
</g>
</g>
</svg>
