<?xml version="1.0" encoding="UTF-8" standalone="no"?>
<!DOCTYPE svg PUBLIC "-//W3C//DTD SVG 1.1//EN"
 "http://www.w3.org/Graphics/SVG/1.1/DTD/svg11.dtd">
<!-- Generated by graphviz version 2.40.1 (20161225.0304)
 -->
<!-- Pages: 1 -->
<svg width="422pt" height="44pt"
 viewBox="0.00 0.00 422.00 44.00" xmlns="http://www.w3.org/2000/svg" xmlns:xlink="http://www.w3.org/1999/xlink">
<g id="graph0" class="graph" transform="scale(1 1) rotate(0) translate(4 40)">
<polygon fill="#ffffff" stroke="transparent" points="-4,4 -4,-40 418,-40 418,4 -4,4"/>
<!-- foo -->
<g id="node1" class="node">
<title>foo</title>
<polygon fill="none" stroke="#000000" points="54,-36 0,-36 0,-32 -4,-32 -4,-28 0,-28 0,-8 -4,-8 -4,-4 0,-4 0,0 54,0 54,-36"/>
<polyline fill="none" stroke="#000000" points="0,-32 4,-32 4,-28 0,-28 "/>
<polyline fill="none" stroke="#000000" points="0,-8 4,-8 4,-4 0,-4 "/>
<text text-anchor="middle" x="27" y="-14.4" font-family="Helvetica,sans" font-size="12.00" fill="#000000">foo</text>
</g>
<!-- bar -->
<g id="node2" class="node">
<title>bar</title>
<ellipse fill="none" stroke="#000000" stroke-dasharray="5,2" cx="117" cy="-18" rx="27" ry="18"/>
<text text-anchor="middle" x="117" y="-14.4" font-family="Helvetica,sans" font-size="12.00" fill="#000000">bar</text>
</g>
<!-- baz -->
<g id="node3" class="node">
<title>baz</title>
<ellipse fill="none" stroke="#000000" cx="207" cy="-18" rx="27" ry="18"/>
<text text-anchor="middle" x="207" y="-14.4" font-family="Helvetica,sans" font-size="12.00" fill="#000000">baz</text>
</g>
<!-- qux -->
<g id="node4" class="node">
<title>qux</title>
<polygon fill="none" stroke="#000000" points="324,-36 274,-36 270,-32 270,0 320,0 324,-4 324,-36"/>
<polyline fill="none" stroke="#000000" points="320,-32 270,-32 "/>
<polyline fill="none" stroke="#000000" points="320,-32 320,0 "/>
<polyline fill="none" stroke="#000000" points="320,-32 324,-36 "/>
<text text-anchor="middle" x="297" y="-14.4" font-family="Helvetica,sans" font-size="12.00" fill="#000000">qux</text>
</g>
<!-- quux -->
<g id="node5" class="node">
<title>quux</title>
<polygon fill="none" stroke="#000000" points="414,-36 360,-36 360,0 414,0 414,-36"/>
<text text-anchor="start" x="368.9941" y="-20.4" font-family="Helvetica,sans" font-size="12.00" fill="#000000">artifact</text>
<text text-anchor="start" x="373.9893" y="-8.4" font-family="Helvetica,sans" font-size="12.00" fill="#000000">quux</text>
</g>
</g>
</svg>
