<?xml version="1.0" encoding="UTF-8" standalone="no"?>
<!DOCTYPE svg PUBLIC "-//W3C//DTD SVG 1.1//EN"
 "http://www.w3.org/Graphics/SVG/1.1/DTD/svg11.dtd">
<!-- Generated by graphviz version 2.40.1 (20161225.0304)
 -->
<!-- Pages: 1 -->
<svg width="602pt" height="116pt"
 viewBox="0.00 0.00 602.00 116.00" xmlns="http://www.w3.org/2000/svg" xmlns:xlink="http://www.w3.org/1999/xlink">
<g id="graph0" class="graph" transform="scale(1 1) rotate(0) translate(4 112)">
<polygon fill="#ffffff" stroke="transparent" points="-4,4 -4,-112 598,-112 598,4 -4,4"/>
<!-- Foo1 -->
<g id="node1" class="node">
<title>Foo1</title>
<polygon fill="none" stroke="#000000" points="54,-36 0,-36 0,0 54,0 54,-36"/>
<text text-anchor="middle" x="27" y="-14.4" font-family="Helvetica,sans" font-size="12.00" fill="#000000">Foo1</text>
</g>
<!-- Bar1 -->
<g id="node2" class="node">
<title>Bar1</title>
<polygon fill="none" stroke="#000000" points="54,-108 0,-108 0,-72 54,-72 54,-108"/>
<text text-anchor="middle" x="27" y="-86.4" font-family="Helvetica,sans" font-size="12.00" fill="#000000">Bar1</text>
</g>
<!-- Foo1&#45;&gt;Bar1 -->
<g id="edge1" class="edge">
<title>Foo1&#45;&gt;Bar1</title>
<path fill="none" stroke="#000000" d="M27,-36.1686C27,-43.869 27,-53.0257 27,-61.5834"/>
<polygon fill="#000000" stroke="#000000" points="27,-71.5867 22.5001,-61.5867 27,-66.5867 27.0001,-61.5867 27.0001,-61.5867 27.0001,-61.5867 27,-66.5867 31.5001,-61.5868 27,-71.5867 27,-71.5867"/>
</g>
<!-- Foo2 -->
<g id="node3" class="node">
<title>Foo2</title>
<polygon fill="none" stroke="#000000" points="144,-36 90,-36 90,0 144,0 144,-36"/>
<text text-anchor="middle" x="117" y="-14.4" font-family="Helvetica,sans" font-size="12.00" fill="#000000">Foo2</text>
</g>
<!-- Bar2 -->
<g id="node4" class="node">
<title>Bar2</title>
<polygon fill="none" stroke="#000000" points="144,-108 90,-108 90,-72 144,-72 144,-108"/>
<text text-anchor="middle" x="117" y="-86.4" font-family="Helvetica,sans" font-size="12.00" fill="#000000">Bar2</text>
</g>
<!-- Foo2&#45;&gt;Bar2 -->
<g id="edge2" class="edge">
<title>Foo2&#45;&gt;Bar2</title>
<path fill="none" stroke="#000000" d="M117,-36.1686C117,-47 117,-60.7124 117,-71.5867"/>
</g>
<!-- Foo3 -->
<g id="node5" class="node">
<title>Foo3</title>
<polygon fill="none" stroke="#000000" points="234,-36 180,-36 180,0 234,0 234,-36"/>
<text text-anchor="middle" x="207" y="-14.4" font-family="Helvetica,sans" font-size="12.00" fill="#000000">Foo3</text>
</g>
<!-- Bar3 -->
<g id="node6" class="node">
<title>Bar3</title>
<polygon fill="none" stroke="#000000" points="234,-108 180,-108 180,-72 234,-72 234,-108"/>
<text text-anchor="middle" x="207" y="-86.4" font-family="Helvetica,sans" font-size="12.00" fill="#000000">Bar3</text>
</g>
<!-- Foo3&#45;&gt;Bar3 -->
<g id="edge3" class="edge">
<title>Foo3&#45;&gt;Bar3</title>
<path fill="none" stroke="#000000" d="M207,-36.1686C207,-43.869 207,-53.0257 207,-61.5834"/>
<polygon fill="none" stroke="#000000" points="203.5001,-61.5867 207,-71.5867 210.5001,-61.5868 203.5001,-61.5867"/>
</g>
<!-- Foo4 -->
<g id="node7" class="node">
<title>Foo4</title>
<polygon fill="none" stroke="#000000" points="324,-36 270,-36 270,0 324,0 324,-36"/>
<text text-anchor="middle" x="297" y="-14.4" font-family="Helvetica,sans" font-size="12.00" fill="#000000">Foo4</text>
</g>
<!-- Bar4 -->
<g id="node8" class="node">
<title>Bar4</title>
<polygon fill="none" stroke="#000000" points="324,-108 270,-108 270,-72 324,-72 324,-108"/>
<text text-anchor="middle" x="297" y="-86.4" font-family="Helvetica,sans" font-size="12.00" fill="#000000">Bar4</text>
</g>
<!-- Foo4&#45;&gt;Bar4 -->
<g id="edge4" class="edge">
<title>Foo4&#45;&gt;Bar4</title>
<path fill="none" stroke="#000000" stroke-dasharray="5,2" d="M297,-36.1686C297,-43.869 297,-53.0257 297,-61.5834"/>
<polygon fill="#000000" stroke="#000000" points="297,-71.5867 292.5001,-61.5867 297,-66.5867 297.0001,-61.5867 297.0001,-61.5867 297.0001,-61.5867 297,-66.5867 301.5001,-61.5868 297,-71.5867 297,-71.5867"/>
</g>
<!-- Foo5 -->
<g id="node9" class="node">
<title>Foo5</title>
<polygon fill="none" stroke="#000000" points="414,-36 360,-36 360,0 414,0 414,-36"/>
<text text-anchor="middle" x="387" y="-14.4" font-family="Helvetica,sans" font-size="12.00" fill="#000000">Foo5</text>
</g>
<!-- Bar5 -->
<g id="node10" class="node">
<title>Bar5</title>
<polygon fill="none" stroke="#000000" points="414,-108 360,-108 360,-72 414,-72 414,-108"/>
<text text-anchor="middle" x="387" y="-86.4" font-family="Helvetica,sans" font-size="12.00" fill="#000000">Bar5</text>
</g>
<!-- Foo5&#45;&gt;Bar5 -->
<g id="edge5" class="edge">
<title>Foo5&#45;&gt;Bar5</title>
<path fill="none" stroke="#000000" d="M387,-48.4121C387,-52.7207 387,-57.1388 387,-61.4114"/>
<polygon fill="none" stroke="#000000" points="387.0001,-48.1686 383,-42.1687 387,-36.1686 391,-42.1686 387.0001,-48.1686"/>
<polygon fill="#000000" stroke="#000000" points="387,-71.5867 382.5001,-61.5867 387,-66.5867 387.0001,-61.5867 387.0001,-61.5867 387.0001,-61.5867 387,-66.5867 391.5001,-61.5868 387,-71.5867 387,-71.5867"/>
</g>
<!-- Foo6 -->
<g id="node11" class="node">
<title>Foo6</title>
<polygon fill="none" stroke="#000000" points="504,-36 450,-36 450,0 504,0 504,-36"/>
<text text-anchor="middle" x="477" y="-14.4" font-family="Helvetica,sans" font-size="12.00" fill="#000000">Foo6</text>
</g>
<!-- Bar6 -->
<g id="node12" class="node">
<title>Bar6</title>
<polygon fill="none" stroke="#000000" points="504,-108 450,-108 450,-72 504,-72 504,-108"/>
<text text-anchor="middle" x="477" y="-86.4" font-family="Helvetica,sans" font-size="12.00" fill="#000000">Bar6</text>
</g>
<!-- Foo6&#45;&gt;Bar6 -->
<g id="edge6" class="edge">
<title>Foo6&#45;&gt;Bar6</title>
<path fill="none" stroke="#000000" d="M477,-48.4121C477,-52.7207 477,-57.1388 477,-61.4114"/>
<polygon fill="#000000" stroke="#000000" points="477.0001,-48.1686 473,-42.1687 477,-36.1686 481,-42.1686 477.0001,-48.1686"/>
<polygon fill="#000000" stroke="#000000" points="477,-71.5867 472.5001,-61.5867 477,-66.5867 477.0001,-61.5867 477.0001,-61.5867 477.0001,-61.5867 477,-66.5867 481.5001,-61.5868 477,-71.5867 477,-71.5867"/>
</g>
<!-- Foo7 -->
<g id="node13" class="node">
<title>Foo7</title>
<polygon fill="none" stroke="#000000" points="594,-36 540,-36 540,0 594,0 594,-36"/>
<text text-anchor="middle" x="567" y="-14.4" font-family="Helvetica,sans" font-size="12.00" fill="#000000">Foo7</text>
</g>
<!-- Bar7 -->
<g id="node14" class="node">
<title>Bar7</title>
<polygon fill="none" stroke="#000000" points="594,-108 540,-108 540,-72 594,-72 594,-108"/>
<text text-anchor="middle" x="567" y="-86.4" font-family="Helvetica,sans" font-size="12.00" fill="#000000">Bar7</text>
</g>
<!-- Foo7&#45;&gt;Bar7 -->
<g id="edge7" class="edge">
<title>Foo7&#45;&gt;Bar7</title>
<path fill="none" stroke="#000000" stroke-dasharray="5,2" d="M567,-36.1686C567,-43.869 567,-53.0257 567,-61.5834"/>
<polygon fill="none" stroke="#000000" points="563.5001,-61.5867 567,-71.5867 570.5001,-61.5868 563.5001,-61.5867"/>
</g>
</g>
</svg>
