<?xml version="1.0" encoding="UTF-8" standalone="no"?>
<!DOCTYPE svg PUBLIC "-//W3C//DTD SVG 1.1//EN"
 "http://www.w3.org/Graphics/SVG/1.1/DTD/svg11.dtd">
<!-- Generated by graphviz version 2.40.1 (20161225.0304)
 -->
<!-- Pages: 1 -->
<svg width="184pt" height="307pt"
 viewBox="0.00 0.00 184.00 307.00" xmlns="http://www.w3.org/2000/svg" xmlns:xlink="http://www.w3.org/1999/xlink">
<g id="graph0" class="graph" transform="scale(1 1) rotate(0) translate(4 303)">
<polygon fill="#ffffff" stroke="transparent" points="-4,4 -4,-303 180,-303 180,4 -4,4"/>
<g id="clust1" class="cluster">
<title>cluster barbaz</title>
<path fill="none" stroke="#000000" d="M20,-127C20,-127 156,-127 156,-127 162,-127 168,-133 168,-139 168,-139 168,-188 168,-188 168,-194 162,-200 156,-200 156,-200 20,-200 20,-200 14,-200 8,-194 8,-188 8,-188 8,-139 8,-139 8,-133 14,-127 20,-127"/>
<text text-anchor="middle" x="88" y="-186.4" font-family="Helvetica,sans" font-size="12.00" fill="#000000">barbaz</text>
</g>
<!-- in -->
<g id="node1" class="node">
<title>in</title>
<ellipse fill="#000000" stroke="#000000" cx="43" cy="-290" rx="9" ry="9"/>
</g>
<!-- foo -->
<g id="node5" class="node">
<title>foo</title>
<path fill="none" stroke="#000000" d="M28,-208.5C28,-208.5 58,-208.5 58,-208.5 64,-208.5 70,-214.5 70,-220.5 70,-220.5 70,-232.5 70,-232.5 70,-238.5 64,-244.5 58,-244.5 58,-244.5 28,-244.5 28,-244.5 22,-244.5 16,-238.5 16,-232.5 16,-232.5 16,-220.5 16,-220.5 16,-214.5 22,-208.5 28,-208.5"/>
<text text-anchor="middle" x="42.8408" y="-222.9" font-family="Helvetica,sans" font-size="12.00" fill="#000000">foo</text>
</g>
<!-- in&#45;&gt;foo -->
<g id="edge2" class="edge">
<title>in&#45;&gt;foo</title>
<path fill="none" stroke="#000000" d="M40.9265,-281.1311C39.2095,-273.0433 38.9023,-267.5975 40.0047,-254.8611"/>
<polygon fill="#000000" stroke="#000000" points="43.5029,-255.0499 40.9932,-244.7567 36.5361,-254.3684 43.5029,-255.0499"/>
</g>
<!-- fn -->
<g id="node2" class="node">
<title>fn</title>
<ellipse fill="#000000" stroke="#000000" cx="133" cy="-13" rx="9" ry="9"/>
<ellipse fill="none" stroke="#000000" cx="133" cy="-13" rx="13" ry="13"/>
</g>
<!-- bar -->
<g id="node3" class="node">
<title>bar</title>
<path fill="none" stroke="#000000" d="M28,-135.5C28,-135.5 58,-135.5 58,-135.5 64,-135.5 70,-141.5 70,-147.5 70,-147.5 70,-159.5 70,-159.5 70,-165.5 64,-171.5 58,-171.5 58,-171.5 28,-171.5 28,-171.5 22,-171.5 16,-165.5 16,-159.5 16,-159.5 16,-147.5 16,-147.5 16,-141.5 22,-135.5 28,-135.5"/>
<text text-anchor="middle" x="42.6719" y="-149.9" font-family="Helvetica,sans" font-size="12.00" fill="#000000">bar</text>
</g>
<!-- baz -->
<g id="node4" class="node">
<title>baz</title>
<path fill="none" stroke="#000000" d="M118,-135.5C118,-135.5 148,-135.5 148,-135.5 154,-135.5 160,-141.5 160,-147.5 160,-147.5 160,-159.5 160,-159.5 160,-165.5 154,-171.5 148,-171.5 148,-171.5 118,-171.5 118,-171.5 112,-171.5 106,-165.5 106,-159.5 106,-159.5 106,-147.5 106,-147.5 106,-141.5 112,-135.5 118,-135.5"/>
<text text-anchor="middle" x="132.6738" y="-149.9" font-family="Helvetica,sans" font-size="12.00" fill="#000000">baz</text>
</g>
<!-- bar&#45;&gt;baz -->
<g id="edge1" class="edge">
<title>bar&#45;&gt;baz</title>
<path fill="none" stroke="#000000" d="M70.0473,-163.7296C80.0974,-166.9152 87.284,-167.7735 95.791,-166.3047"/>
<polygon fill="#000000" stroke="#000000" points="96.8969,-169.6355 105.7382,-163.7974 95.186,-162.8478 96.8969,-169.6355"/>
</g>
<!-- qux -->
<g id="node6" class="node">
<title>qux</title>
<path fill="none" stroke="#000000" d="M118,-62.5C118,-62.5 148,-62.5 148,-62.5 154,-62.5 160,-68.5 160,-74.5 160,-74.5 160,-86.5 160,-86.5 160,-92.5 154,-98.5 148,-98.5 148,-98.5 118,-98.5 118,-98.5 112,-98.5 106,-92.5 106,-86.5 106,-86.5 106,-74.5 106,-74.5 106,-68.5 112,-62.5 118,-62.5"/>
<text text-anchor="middle" x="132.6738" y="-76.9" font-family="Helvetica,sans" font-size="12.00" fill="#000000">qux</text>
</g>
<!-- baz&#45;&gt;qux -->
<g id="edge4" class="edge">
<title>baz&#45;&gt;qux</title>
<path fill="none" stroke="#000000" d="M137.6812,-135.4046C140.7084,-123.2198 142.0976,-115.691 141.8486,-109.0597"/>
<polygon fill="#000000" stroke="#000000" points="145.2371,-108.1086 140.1089,-98.8375 138.3363,-109.283 145.2371,-108.1086"/>
</g>
<!-- foo&#45;&gt;bar -->
<g id="edge3" class="edge">
<title>foo&#45;&gt;bar</title>
<path fill="none" stroke="#000000" d="M36.3095,-208.2554C34.2531,-200.4498 34.3862,-193.7804 36.7087,-181.6316"/>
<polygon fill="#000000" stroke="#000000" points="40.1597,-182.2279 38.7869,-171.7224 33.3088,-180.7911 40.1597,-182.2279"/>
</g>
<!-- qux&#45;&gt;fn -->
<g id="edge5" class="edge">
<title>qux&#45;&gt;fn</title>
<path fill="none" stroke="#000000" d="M135.0981,-62.3957C136.5164,-49.7286 137.1664,-42.1447 137.0482,-36.0375"/>
<polygon fill="#000000" stroke="#000000" points="140.5066,-35.4515 136.0056,-25.8603 133.543,-36.165 140.5066,-35.4515"/>
</g>
</g>
</svg>
